<svg id="LOGO_PINK" data-name="LOGO PINK" xmlns="http://www.w3.org/2000/svg" width="79.077" height="33.31" viewBox="0 0 79.077 33.31">
  <path id="Path_13" data-name="Path 13" d="M369.018,1023.8h-1.927v-9.887h1.928Zm-18.534-4.965a3.051,3.051,0,0,0-1.252-2.51,5.8,5.8,0,0,0-6.5,0,3.013,3.013,0,0,0-1.254,2.51,3.1,3.1,0,0,0,1.239,2.552,5.191,5.191,0,0,0,3.279.969,5.016,5.016,0,0,0,3.248-.969,3.092,3.092,0,0,0,1.236-2.552Zm-27.79-.767h8.829a3.1,3.1,0,0,0-1.167-1.743,5.049,5.049,0,0,0-3.233-1,5.154,5.154,0,0,0-3.263,1,3.171,3.171,0,0,0-1.167,1.743Zm17.577,4.313h.787a4.582,4.582,0,0,1-1.566-3.546,4.64,4.64,0,0,1,2.091-3.924,7.341,7.341,0,0,1,4.421-1.334,7.221,7.221,0,0,1,4.405,1.334,4.658,4.658,0,0,1,2.092,3.924,4.6,4.6,0,0,1-1.589,3.546h6.526l.345-.008a3.707,3.707,0,0,0,1.995-.408,1.531,1.531,0,0,0,.613-1.381v-6.673h1.928v6.673a3.084,3.084,0,0,1-1.175,2.6,5.564,5.564,0,0,1-3.443.9H336.326a5.6,5.6,0,0,1-3.441-.9,2.766,2.766,0,0,1-.768-.877,6.71,6.71,0,0,1-.572.477,7.244,7.244,0,0,1-4.421,1.3h-.247v-1.736h.247a5.078,5.078,0,0,0,3.248-.969,3.085,3.085,0,0,0,1.13-1.679h-8.79l-2.023.027a5.372,5.372,0,0,1-.077-.9,4.64,4.64,0,0,1,2.091-3.924,7.342,7.342,0,0,1,4.421-1.334,7.221,7.221,0,0,1,4.405,1.334,4.664,4.664,0,0,1,2.091,3.924l.022,1.751a1.523,1.523,0,0,0,.609,1.381,35.615,35.615,0,0,0,5.676.408l.344-.008Zm-22.728-1.795a3.084,3.084,0,0,1-1.175,2.6,5.574,5.574,0,0,1-3.441.9h-.264v-1.723l.344.008a3.716,3.716,0,0,0,2-.408,1.525,1.525,0,0,0,.608-1.381v-6.673h1.932Zm-15.467-3.168a3.091,3.091,0,0,1,1.173-2.6,5.553,5.553,0,0,1,3.444-.9q4.177,0,4.4,3.6h-1.944a1.992,1.992,0,0,0-.693-1.46,3.153,3.153,0,0,0-1.849-.42,3.712,3.712,0,0,0-1.993.408,1.531,1.531,0,0,0-.61,1.381l.012.7v2.447a2.945,2.945,0,0,1-1.561,2.553,9.437,9.437,0,0,1-8.376,0,2.941,2.941,0,0,1-1.561-2.553v-6.642h1.928v6.254q0,2.184,3.829,2.189t3.807-2.189l-.012-1.774Zm53.744,9.245a.893.893,0,0,1-.352.731,1.476,1.476,0,0,1-.929.272,1.494,1.494,0,0,1-.935-.272.9.9,0,0,1-.354-.731.887.887,0,0,1,.358-.717,1.461,1.461,0,0,1,.931-.284,1.443,1.443,0,0,1,.925.284.875.875,0,0,1,.356.726Zm3.338,0a.9.9,0,0,1-.352.731,1.475,1.475,0,0,1-.929.272,1.5,1.5,0,0,1-.934-.272.912.912,0,0,1,0-1.448,1.461,1.461,0,0,1,.931-.284,1.439,1.439,0,0,1,.923.284.872.872,0,0,1,.36.726Zm-12.892-15.246a.889.889,0,0,1-.352.727,1.456,1.456,0,0,1-.926.272,1.481,1.481,0,0,1-.937-.272.911.911,0,0,1,0-1.444,1.452,1.452,0,0,1,.933-.287,1.418,1.418,0,0,1,.919.287.872.872,0,0,1,.363.721Zm3.339,0a.882.882,0,0,1-.353.727,1.46,1.46,0,0,1-.926.272,1.5,1.5,0,0,1-.941-.272.892.892,0,0,1-.351-.727.88.88,0,0,1,.358-.716,1.462,1.462,0,0,1,.934-.287,1.41,1.41,0,0,1,.919.287.873.873,0,0,1,.36.721Zm-1.67-2.359a.886.886,0,0,1-.354.727,1.453,1.453,0,0,1-.926.272,1.5,1.5,0,0,1-.937-.272.882.882,0,0,1-.354-.727.872.872,0,0,1,.359-.716,1.448,1.448,0,0,1,.931-.287,1.415,1.415,0,0,1,.919.287.863.863,0,0,1,.36.721Zm-49.893,17.615a.9.9,0,0,1-.353.731,1.47,1.47,0,0,1-.927.272,1.5,1.5,0,0,1-.937-.272.916.916,0,0,1,0-1.448,1.469,1.469,0,0,1,.933-.284,1.431,1.431,0,0,1,.922.284.873.873,0,0,1,.363.717Zm3.336,0a.894.894,0,0,1-.353.731,1.464,1.464,0,0,1-.926.272,1.5,1.5,0,0,1-.935-.272.912.912,0,0,1,0-1.448,1.467,1.467,0,0,1,.933-.284,1.422,1.422,0,0,1,.922.284A.869.869,0,0,1,301.378,1026.669Z" transform="translate(-292.09 -1007.518)" fill="#d60564"/>
  <path id="Path_14" data-name="Path 14" d="M291.288,1182.024H289.36v-9.884h1.928Zm19.913-9.884-5.466,9.884h-2.22l-5.467-9.888h2.14l4.438,8.215,4.438-8.215Zm17.992,4.919a4.706,4.706,0,0,1-2.075,3.955,7.255,7.255,0,0,1-4.42,1.3,7.334,7.334,0,0,1-4.438-1.3,4.769,4.769,0,0,1,.015-7.879,7.334,7.334,0,0,1,4.423-1.335,7.231,7.231,0,0,1,4.405,1.335,4.657,4.657,0,0,1,2.091,3.924Zm-2.009,0a3.043,3.043,0,0,0-1.254-2.508,5.192,5.192,0,0,0-3.232-1,5.119,5.119,0,0,0-3.263,1,3.033,3.033,0,0,0-1.256,2.508,3.118,3.118,0,0,0,1.239,2.556,5.2,5.2,0,0,0,3.281.963,5.052,5.052,0,0,0,3.247-.963,3.11,3.11,0,0,0,1.24-2.556Zm20.632,4.965H345.6l-2.583-3.636H338.1v3.636h-1.928v-9.884h7.99a3.58,3.58,0,0,1,2.507.85,2.937,2.937,0,0,1,.933,2.283,2.813,2.813,0,0,1-2.46,3.007Zm-3.943-5.39q1.751,0,1.753-1.334,0-1.411-1.865-1.414H338.1v2.748Zm21.808-4.495-5.63,5.993v3.891h-1.928v-3.9l-5.589-5.989h2.345l4.231,4.5,4.226-4.5Z" transform="translate(-289.36 -1149.006)" fill="#d60564"/>
  <path id="Path_15" data-name="Path 15" d="M821.354,1006.914a5.321,5.321,0,0,1-1.9-1.562l1.039-.905q1.073,1.448,1.92.832l1.08-.791a1.506,1.506,0,0,1,1.36-.284,4.342,4.342,0,0,1,1.608,1.44l-.921.842a1.979,1.979,0,0,0-.778-.744.736.736,0,0,0-.72.158l-1.23.9A1.439,1.439,0,0,1,821.354,1006.914Z" transform="translate(-747.379 -1004.143)" fill="#d60564"/>
</svg>
