<svg xmlns="http://www.w3.org/2000/svg" width="18.423" height="16.39" viewBox="0 0 18.423 16.39">
  <path id="Path_33" data-name="Path 33" d="M16.961,1.6A4.954,4.954,0,0,0,13.276,0a4.635,4.635,0,0,0-2.895,1,5.922,5.922,0,0,0-1.17,1.222A5.919,5.919,0,0,0,8.041,1,4.634,4.634,0,0,0,5.146,0,4.954,4.954,0,0,0,1.461,1.6,5.759,5.759,0,0,0,0,5.537a6.857,6.857,0,0,0,1.827,4.488A38.961,38.961,0,0,0,6.4,14.318c.634.54,1.352,1.152,2.1,1.8a1.082,1.082,0,0,0,1.424,0c.746-.652,1.465-1.265,2.1-1.805A38.943,38.943,0,0,0,16.6,10.025a6.856,6.856,0,0,0,1.827-4.488A5.758,5.758,0,0,0,16.961,1.6Zm0,0" transform="translate(0 0)" fill="#d60564"/>
</svg>
