<svg xmlns="http://www.w3.org/2000/svg" width="21.264" height="28.351" viewBox="0 0 21.264 28.351">
  <g id="pin" transform="translate(-64)">
    <ellipse id="Ellipse_28" data-name="Ellipse 28" cx="8" cy="7.5" rx="8" ry="7.5" transform="translate(67 3.352)" fill="#fff"/>
    <g id="Group_110" data-name="Group 110" transform="translate(64)">
      <g id="Group_109" data-name="Group 109">
        <path id="Path_85" data-name="Path 85" d="M74.632,0A10.644,10.644,0,0,0,64,10.632c0,7.843,9.809,17.166,10.227,17.559a.591.591,0,0,0,.81,0c.418-.393,10.227-9.716,10.227-17.559A10.644,10.644,0,0,0,74.632,0Zm0,16.538a5.907,5.907,0,1,1,5.907-5.907A5.913,5.913,0,0,1,74.632,16.538Z" transform="translate(-64)"/>
      </g>
    </g>
  </g>
</svg>
