<svg id="Capa_1" enable-background="new 0 0 510.6 510.6" height="512" viewBox="0 0 510.6 510.6" width="512" xmlns="http://www.w3.org/2000/svg"><g><path d="m437.79 372.66c4.143 0 7.5-3.358 7.5-7.5v-297.66c0-17.369-14.131-31.5-31.5-31.5h-22.12v-4.5c0-17.369-14.131-31.5-31.5-31.5h-179.14c-4.143 0-7.5 3.358-7.5 7.5s3.357 7.5 7.5 7.5h179.14c9.098 0 16.5 7.402 16.5 16.5v416.17c0 9.098-7.402 16.5-16.5 16.5h-263.36c-9.099 0-16.5-7.402-16.5-16.5v-416.17c0-9.098 7.401-16.5 16.5-16.5h49.221c4.143 0 7.5-3.358 7.5-7.5s-3.357-7.5-7.5-7.5h-49.221c-17.369 0-31.5 14.131-31.5 31.5v416.17c0 17.369 14.131 31.5 31.5 31.5h15.23v7.93c0 12.958 10.542 23.5 23.5 23.5h185.899c12.958 0 23.5-10.542 23.5-23.5v-7.93h15.23c17.369 0 31.5-14.131 31.5-31.5v-4.5h22.12c17.369 0 31.5-14.131 31.5-31.5v-11.51c0-4.142-3.357-7.5-7.5-7.5s-7.5 3.358-7.5 7.5v11.51c0 9.098-7.402 16.5-16.5 16.5h-22.12v-377.17h22.12c9.099 0 16.5 7.402 16.5 16.5v297.66c.001 4.142 3.358 7.5 7.501 7.5zm-107.851 114.44c0 4.687-3.813 8.5-8.5 8.5h-185.899c-4.687 0-8.5-3.813-8.5-8.5v-7.93h202.899z"/><path d="m263.403 200.333c0-6.893-5.607-12.5-12.5-12.5h-41.673c-6.893 0-12.5 5.607-12.5 12.5v41.672c0 6.893 5.607 12.5 12.5 12.5h41.673c6.893 0 12.5-5.607 12.5-12.5zm-15 39.172h-36.673v-36.672h36.673z"/><path d="m353.83 200.333c0-6.893-5.607-12.5-12.5-12.5h-41.673c-6.893 0-12.5 5.607-12.5 12.5v41.672c0 6.893 5.607 12.5 12.5 12.5h41.673c6.893 0 12.5-5.607 12.5-12.5zm-15 39.172h-36.673v-36.672h36.673z"/><path d="m172.977 200.333c0-6.893-5.607-12.5-12.5-12.5h-41.672c-6.893 0-12.5 5.607-12.5 12.5v41.672c0 6.893 5.607 12.5 12.5 12.5h41.672c6.893 0 12.5-5.607 12.5-12.5zm-15 39.172h-36.672v-36.672h36.672z"/><path d="m263.403 293.893c0-6.893-5.607-12.5-12.5-12.5h-41.673c-6.893 0-12.5 5.607-12.5 12.5v41.672c0 6.893 5.607 12.5 12.5 12.5h41.673c6.893 0 12.5-5.607 12.5-12.5zm-15 39.172h-36.673v-36.672h36.673z"/><path d="m172.977 293.893c0-6.893-5.607-12.5-12.5-12.5h-41.672c-6.893 0-12.5 5.607-12.5 12.5v41.672c0 6.893 5.607 12.5 12.5 12.5h41.672c6.893 0 12.5-5.607 12.5-12.5zm-15 39.172h-36.672v-36.672h36.672z"/><path d="m250.903 364.289h-41.673c-6.893 0-12.5 5.607-12.5 12.5v41.672c0 6.893 5.607 12.5 12.5 12.5h41.673c6.893 0 12.5-5.607 12.5-12.5v-41.672c0-6.893-5.607-12.5-12.5-12.5zm-2.5 51.672h-36.673v-36.672h36.673z"/><path d="m341.33 281.393h-41.673c-6.893 0-12.5 5.607-12.5 12.5v124.568c0 6.893 5.607 12.5 12.5 12.5h41.673c6.893 0 12.5-5.607 12.5-12.5v-124.568c0-6.893-5.607-12.5-12.5-12.5zm-2.5 134.568h-36.673v-119.568h36.673z"/><path d="m160.477 364.289h-41.672c-6.893 0-12.5 5.607-12.5 12.5v41.672c0 6.893 5.607 12.5 12.5 12.5h41.672c6.893 0 12.5-5.607 12.5-12.5v-41.672c0-6.893-5.608-12.5-12.5-12.5zm-2.5 51.672h-36.672v-36.672h36.672z"/><path d="m353.83 75.716c0-12.407-10.094-22.5-22.5-22.5h-205.677c-12.406 0-22.5 10.093-22.5 22.5v64.288c0 12.407 10.094 22.5 22.5 22.5h205.677c12.406 0 22.5-10.093 22.5-22.5zm-15 64.288c0 4.136-3.364 7.5-7.5 7.5h-205.677c-4.136 0-7.5-3.364-7.5-7.5v-64.288c0-4.136 3.364-7.5 7.5-7.5h205.677c4.136 0 7.5 3.364 7.5 7.5z"/></g></svg>