<svg xmlns="http://www.w3.org/2000/svg" width="18.423" height="16.39" viewBox="0 0 18.423 16.39">
  <path id="Path_34" data-name="Path 34" d="M9.211,16.39a1.08,1.08,0,0,1-.712-.268c-.744-.651-1.462-1.262-2.095-1.8l0,0a38.961,38.961,0,0,1-4.574-4.293A6.857,6.857,0,0,1,0,5.537,5.758,5.758,0,0,1,1.461,1.6,4.954,4.954,0,0,1,5.147,0,4.634,4.634,0,0,1,8.041,1a5.922,5.922,0,0,1,1.17,1.222A5.923,5.923,0,0,1,10.382,1a4.634,4.634,0,0,1,2.895-1,4.954,4.954,0,0,1,3.685,1.6,5.758,5.758,0,0,1,1.461,3.933A6.856,6.856,0,0,1,16.6,10.025a38.952,38.952,0,0,1-4.574,4.293c-.634.54-1.353,1.153-2.1,1.805A1.081,1.081,0,0,1,9.211,16.39ZM5.147,1.079A3.887,3.887,0,0,0,2.255,2.335a4.684,4.684,0,0,0-1.176,3.2,5.77,5.77,0,0,0,1.579,3.8A38.339,38.339,0,0,0,7.1,13.5l0,0c.635.542,1.356,1.156,2.106,1.811.754-.657,1.476-1.272,2.112-1.814a38.346,38.346,0,0,0,4.443-4.16,5.77,5.77,0,0,0,1.579-3.8,4.684,4.684,0,0,0-1.176-3.2,3.886,3.886,0,0,0-2.892-1.256,3.579,3.579,0,0,0-2.235.774A5.237,5.237,0,0,0,9.8,3.294a.681.681,0,0,1-1.17,0A5.232,5.232,0,0,0,7.381,1.853,3.579,3.579,0,0,0,5.147,1.079Zm0,0" fill="#6d6e70"/>
</svg>
