<svg width="24" height="24" viewBox="0 0 24 24" fill="none" xmlns="http://www.w3.org/2000/svg">
<g id="Iconsax/Linear/eyeslash">
<path id="Vector" d="M14.53 9.47L9.47 14.53C8.79901 13.859 8.42204 12.9489 8.42204 12C8.42204 11.5301 8.51459 11.0649 8.6944 10.6308C8.87421 10.1967 9.13776 9.80225 9.47 9.47C9.80225 9.13776 10.1967 8.87421 10.6308 8.6944C11.0649 8.51459 11.5301 8.42204 12 8.42204C12.9489 8.42204 13.859 8.79901 14.53 9.47Z" stroke="#6F6F6F" stroke-width="1.5" stroke-linecap="round" stroke-linejoin="round"/>
<path id="Vector_2" d="M17.82 5.77C16.07 4.45 14.07 3.73 12 3.73C8.47 3.73 5.18 5.81 2.89 9.41C1.99 10.82 1.99 13.19 2.89 14.6C3.68 15.84 4.6 16.91 5.6 17.77M8.42 19.53C9.56 20.01 10.77 20.27 12 20.27C15.53 20.27 18.82 18.19 21.11 14.59C22.01 13.18 22.01 10.81 21.11 9.4C20.78 8.88 20.42 8.39 20.05 7.93" stroke="#6F6F6F" stroke-width="1.5" stroke-linecap="round" stroke-linejoin="round"/>
<path id="Vector_3" d="M15.51 12.7C15.3745 13.3976 15.0337 14.0387 14.5312 14.5412C14.0287 15.0437 13.3876 15.3845 12.69 15.52M9.47 14.53L2 22M22 2L14.53 9.47" stroke="#6F6F6F" stroke-width="1.5" stroke-linecap="round" stroke-linejoin="round"/>
</g>
</svg>
