<svg xmlns="http://www.w3.org/2000/svg" width="28.673" height="28.673" viewBox="0 0 28.673 28.673">
  <g id="about" transform="translate(0 0)">
    <g id="Group_93" data-name="Group 93" transform="translate(0 0)">
      <path id="Path_71" data-name="Path 71" d="M14.337,28.673A14.337,14.337,0,0,1,4.2,4.2,14.337,14.337,0,0,1,24.474,24.474a14.243,14.243,0,0,1-10.138,4.2Zm0-26.881A12.545,12.545,0,1,0,26.881,14.337,12.559,12.559,0,0,0,14.337,1.792Z" transform="translate(0 0)" fill="#cecece"/>
      <path id="Path_72" data-name="Path 72" d="M180.48,111.233a.9.9,0,0,1-.9-.9,8.412,8.412,0,0,1,2.48-5.987,5.265,5.265,0,0,0,1.552-3.747,2.813,2.813,0,0,0-2.81-2.81h-.2a2.813,2.813,0,0,0-2.81,2.81v.326a.9.9,0,0,1-1.792,0V100.6a4.607,4.607,0,0,1,4.6-4.6h.2a4.607,4.607,0,0,1,4.6,4.6,7.045,7.045,0,0,1-2.077,5.014,6.631,6.631,0,0,0-1.955,4.72A.9.9,0,0,1,180.48,111.233Z" transform="translate(-166.143 -90.624)" fill="#cecece"/>
      <path id="Path_73" data-name="Path 73" d="M240.911,401.792a.9.9,0,0,1,0-1.792h0a.9.9,0,0,1,0,1.792Z" transform="translate(-226.573 -377.599)" fill="#cecece"/>
    </g>
  </g>
</svg>
