<svg xmlns="http://www.w3.org/2000/svg" width="24.126" height="26.251" viewBox="0 0 24.126 26.251">
  <g id="alarm" transform="translate(0.375 0.375)">
    <path id="Path_67" data-name="Path 67" d="M359.453,26.761A1.063,1.063,0,0,1,358.39,25.7a11.086,11.086,0,0,0-3.267-7.889,1.062,1.062,0,1,1,1.5-1.5,13.194,13.194,0,0,1,3.89,9.392A1.063,1.063,0,0,1,359.453,26.761Zm0,0" transform="translate(-337.14 -15.198)" fill="none" stroke="#acacac" stroke-width="0.75"/>
    <path id="Path_68" data-name="Path 68" d="M1.062,26.761A1.063,1.063,0,0,1,0,25.7a13.2,13.2,0,0,1,3.89-9.392,1.062,1.062,0,0,1,1.5,1.5A11.084,11.084,0,0,0,2.125,25.7,1.063,1.063,0,0,1,1.062,26.761Zm0,0" transform="translate(0 -15.198)" fill="none" stroke="#acacac" stroke-width="0.75"/>
    <path id="Path_69" data-name="Path 69" d="M41.923,17.971A7.117,7.117,0,0,1,39.4,12.525V9.563A7.444,7.444,0,0,0,33.02,2.21V1.062a1.063,1.063,0,0,0-2.125,0V2.21A7.443,7.443,0,0,0,24.52,9.563v2.962a7.125,7.125,0,0,1-2.537,5.454,1.859,1.859,0,0,0,1.209,3.272H40.723a1.859,1.859,0,0,0,1.2-3.28Zm0,0" transform="translate(-20.27)" fill="none" stroke="#acacac" stroke-width="0.75"/>
    <path id="Path_70" data-name="Path 70" d="M160.193,451.188A3.991,3.991,0,0,0,164.1,448h-7.808A3.991,3.991,0,0,0,160.193,451.188Zm0,0" transform="translate(-148.505 -425.687)" fill="none" stroke="#acacac" stroke-width="0.75"/>
  </g>
</svg>
