<svg xmlns="http://www.w3.org/2000/svg" width="27.376" height="27.375" viewBox="0 0 27.376 27.375">
  <g id="earth" transform="translate(-4.992 -4.999)">
    <path id="Path_65" data-name="Path 65" d="M18.68,5a13.688,13.688,0,1,0,9.679,4.009A13.688,13.688,0,0,0,18.68,5ZM9.464,9.471a13.086,13.086,0,0,1,2.984-2.237l1.567,1.179a4.539,4.539,0,0,0,.431.287,3.891,3.891,0,0,1,1.224,1.133l.906,1.307a1.094,1.094,0,0,1-.033,1.3l-.42.545a.643.643,0,0,1-.588.244l-.477-.061a2.049,2.049,0,0,0-2.033,1,.651.651,0,0,1-.651.307l-1.091-.139a2.106,2.106,0,0,0-2.02.913,1.909,1.909,0,0,0-.032,2.092L9.96,18.49a1.806,1.806,0,0,0,2.369.623l.749-.4a1.055,1.055,0,0,1,1.036.025l1.421.853a.674.674,0,0,0,.365.1,1.676,1.676,0,0,1,1.386.738l.7.969c.054.075.112.149.172.22l.91,1.07a.138.138,0,0,1,.031.114.162.162,0,0,1-.065.1l-1.366,1.049a2.535,2.535,0,0,0-.883,1.271L16.32,26.7a.606.606,0,0,1-.114.21l-.447.538a2.868,2.868,0,0,0-.665,1.575.382.382,0,0,1-.233.319.029.029,0,0,1-.032-.005.059.059,0,0,1-.011-.028L14.4,26.8a2.285,2.285,0,0,0-.435-1.006l-1.543-2.023a1.461,1.461,0,0,1-.248-.5l-.509-1.837a2.262,2.262,0,0,0-1.577-1.571l-.111-.03a1.1,1.1,0,0,1-.463-.259l-.95-.894a1.825,1.825,0,0,1-.325-.409,2.445,2.445,0,0,0-2.493-1.186,12.935,12.935,0,0,1,3.72-7.612ZM27.9,27.9A13.033,13.033,0,0,1,5.647,18.687q0-.466.033-.926l.1-.021a1.79,1.79,0,0,1,1.889.858,2.479,2.479,0,0,0,.442.556l.95.894a1.757,1.757,0,0,0,.739.414l.111.03a1.6,1.6,0,0,1,1.119,1.114l.509,1.837a2.113,2.113,0,0,0,.358.721l1.543,2.023a1.628,1.628,0,0,1,.31.717l.419,2.516a.685.685,0,0,0,.941.529,1.035,1.035,0,0,0,.632-.863,2.217,2.217,0,0,1,.516-1.216l.447-.538a1.259,1.259,0,0,0,.236-.436l.459-1.49a1.884,1.884,0,0,1,.657-.945l1.366-1.049a.81.81,0,0,0,.313-.513.8.8,0,0,0-.179-.641l-.91-1.07c-.048-.057-.095-.116-.138-.177l-.7-.969a2.331,2.331,0,0,0-1.935-1.011.022.022,0,0,1-.012,0l-1.421-.853a1.712,1.712,0,0,0-1.681-.041l-.749.4a1.149,1.149,0,0,1-1.507-.4l-.727-1.149a1.254,1.254,0,0,1,.021-1.375,1.455,1.455,0,0,1,1.4-.631l1.091.139a1.3,1.3,0,0,0,1.3-.627,1.4,1.4,0,0,1,1.385-.684l.477.061a1.3,1.3,0,0,0,1.189-.494l.42-.545a1.746,1.746,0,0,0,.052-2.068L16.209,9.46a4.55,4.55,0,0,0-1.431-1.325,3.88,3.88,0,0,1-.369-.245L13.1,6.9A13.065,13.065,0,0,1,26.72,8.427L26.38,8.9a17.258,17.258,0,0,0-2.171,2.943l-.495.846a.981.981,0,0,0,.118,1.131,1.488,1.488,0,0,0,.939.5l.238.029a2.037,2.037,0,0,1,1.7,1.43,1.992,1.992,0,0,1-.586,2.065l-2.342,2.079a1.4,1.4,0,0,0-.464,1.055v.552a1.1,1.1,0,0,0,.5.939,1.9,1.9,0,0,1,.863,1.422l.052.538a.95.95,0,0,0,.959.858h1.378a2.087,2.087,0,0,0,1.922-1.242l.083-.182a1.916,1.916,0,0,1,1.681-1.15l.324-.013h.01A12.975,12.975,0,0,1,27.9,27.9Zm3.387-5.878-.161.016-.076.005-.324.015a2.57,2.57,0,0,0-2.25,1.544l-.083.176a1.433,1.433,0,0,1-1.323.851H25.69a.3.3,0,0,1-.311-.269l-.055-.544a2.541,2.541,0,0,0-1.154-1.9.444.444,0,0,1-.2-.385v-.552a.742.742,0,0,1,.243-.564l2.348-2.079a2.646,2.646,0,0,0,.776-2.745A2.694,2.694,0,0,0,25.09,13.7l-.238-.029a.835.835,0,0,1-.527-.279.329.329,0,0,1-.044-.373l.493-.843a16.6,16.6,0,0,1,2.1-2.845A.323.323,0,0,0,26.9,9.3l.325-.454q.344.3.671.625a12.948,12.948,0,0,1,3.817,9.216,13.106,13.106,0,0,1-.43,3.338Z" transform="translate(0)" fill="#acacac"/>
  </g>
</svg>
