<svg xmlns="http://www.w3.org/2000/svg" width="25.073" height="25.067" viewBox="0 0 25.073 25.067">
  <g id="store" transform="translate(0.001 -0.056)">
    <path id="Path_66" data-name="Path 66" d="M23.815,14.208v8.826a2.091,2.091,0,0,1-2.089,2.089H3.343a2.091,2.091,0,0,1-2.089-2.089V14.208a.418.418,0,0,1,.836,0v8.826a1.255,1.255,0,0,0,1.253,1.253H7.887v-7.05a2.091,2.091,0,0,1,2.089-2.089h5.118a2.091,2.091,0,0,1,2.089,2.089v5.379a.418.418,0,1,1-.836,0V17.237a1.255,1.255,0,0,0-1.253-1.253H9.976a1.255,1.255,0,0,0-1.253,1.253v7.05h3.395v-6.58a.418.418,0,0,1,.836,0v6.58h8.773a1.255,1.255,0,0,0,1.253-1.253V14.208a.418.418,0,1,1,.836,0ZM2.717,6.741a.418.418,0,0,0,.418.418c22.731,0,21.6.041,21.77-.087a.415.415,0,0,0,.159-.273c.023-.168.173.245-2.746-6.491a.418.418,0,0,0-.383-.252H3.134a.418.418,0,0,0-.383.252L.036,6.574A14.188,14.188,0,0,0,0,9.333a3.445,3.445,0,0,0,6.475,1.641,3.448,3.448,0,0,0,6.059,0,3.448,3.448,0,0,0,6.058,0,3.446,3.446,0,0,0,6.476-1.644.418.418,0,1,0-.836,0,2.611,2.611,0,1,1-5.222,0,.418.418,0,1,0-.836,0,2.611,2.611,0,1,1-5.222,0,.418.418,0,1,0-.836,0,2.611,2.611,0,1,1-5.222-.021.418.418,0,0,0-.836,0,2.611,2.611,0,1,1-5.222.021v-2.5L3.409.892H21.661l2.353,5.431H3.135a.418.418,0,0,0-.418.418Z" transform="translate(0)" fill="#acacac"/>
  </g>
</svg>
