<svg id="user" xmlns="http://www.w3.org/2000/svg" width="19.35" height="20.243" viewBox="0 0 19.35 20.243">
  <g id="Group_12" data-name="Group 12" transform="translate(0 10.148)">
    <g id="Group_11" data-name="Group 11">
      <path id="Path_31" data-name="Path 31" d="M21,257.323A9.686,9.686,0,0,0,11.328,267a.421.421,0,1,0,.841,0,8.834,8.834,0,0,1,17.667,0,.421.421,0,1,0,.841,0A9.685,9.685,0,0,0,21,257.323Z" transform="translate(-11.328 -257.323)" fill="#acacac"/>
    </g>
  </g>
  <g id="Group_14" data-name="Group 14" transform="translate(5.048)">
    <g id="Group_13" data-name="Group 13">
      <path id="Path_32" data-name="Path 32" d="M143.955,0a4.627,4.627,0,1,0,4.627,4.627A4.633,4.633,0,0,0,143.955,0Zm0,8.413a3.786,3.786,0,1,1,3.786-3.786A3.79,3.79,0,0,1,143.955,8.413Z" transform="translate(-139.328 0)" fill="#acacac"/>
    </g>
  </g>
</svg>
