<svg id="shopping-bag" xmlns="http://www.w3.org/2000/svg" width="17.475" height="20.191" viewBox="0 0 17.475 20.191">
  <path id="Path_30" data-name="Path 30" d="M17.471,19.527,15.937,4.914a.6.6,0,0,0-.6-.538H12.455V3.718a3.718,3.718,0,0,0-7.436,0v.658H2.135a.6.6,0,0,0-.6.538L0,19.527a.6.6,0,0,0,.6.664H16.873a.6.6,0,0,0,.6-.664ZM6.221,3.718a2.516,2.516,0,0,1,5.032,0v.658H6.221ZM1.268,18.989,2.676,5.577H5.019V6.9a.6.6,0,0,0,1.2,0V5.577h5.032V6.9a.6.6,0,0,0,1.2,0V5.577H14.8l1.408,13.412Zm0,0" transform="translate(0.001)" fill="currentColor"/>
</svg>
