<svg id="heart" xmlns="http://www.w3.org/2000/svg" width="22.661" height="20.161" viewBox="0 0 22.661 20.161">
  <path id="Path_22" data-name="Path 22" d="M11.331,20.161a1.329,1.329,0,0,1-.876-.329c-.915-.8-1.8-1.553-2.577-2.216l0,0a47.924,47.924,0,0,1-5.626-5.281A8.435,8.435,0,0,1,0,6.81,7.083,7.083,0,0,1,1.8,1.973,6.094,6.094,0,0,1,6.331,0a5.7,5.7,0,0,1,3.56,1.229,7.285,7.285,0,0,1,1.439,1.5,7.285,7.285,0,0,1,1.44-1.5A5.7,5.7,0,0,1,16.331,0a6.094,6.094,0,0,1,4.533,1.973,7.083,7.083,0,0,1,1.8,4.837,8.434,8.434,0,0,1-2.247,5.521,47.914,47.914,0,0,1-5.626,5.281c-.78.665-1.664,1.418-2.582,2.22A1.33,1.33,0,0,1,11.331,20.161Zm-5-18.834A4.781,4.781,0,0,0,2.774,2.873,5.762,5.762,0,0,0,1.327,6.81,7.1,7.1,0,0,0,3.27,11.484,47.159,47.159,0,0,0,8.735,16.6l0,0c.782.666,1.668,1.421,2.59,2.228.928-.808,1.815-1.564,2.6-2.231a47.168,47.168,0,0,0,5.465-5.117A7.1,7.1,0,0,0,21.334,6.81a5.762,5.762,0,0,0-1.446-3.938,4.78,4.78,0,0,0-3.557-1.545,4.4,4.4,0,0,0-2.749.952A6.441,6.441,0,0,0,12.05,4.052a.838.838,0,0,1-1.439,0A6.435,6.435,0,0,0,9.079,2.279,4.4,4.4,0,0,0,6.331,1.327Zm0,0" transform="translate(0 0)" fill="currentColor"/>
</svg>
