<svg xmlns="http://www.w3.org/2000/svg" width="35.25" height="25.25" viewBox="0 0 35.25 25.25">
  <path id="Path_88" data-name="Path 88" d="M33.877,79.492,18.16,69.374v-2.35a4.164,4.164,0,0,0,3.5-4.112,4.161,4.161,0,0,0-8.321,0,.66.66,0,0,0,1.321,0,2.84,2.84,0,1,1,2.84,2.807.62.62,0,0,0-.66.653v3L1.057,79.557A2.38,2.38,0,0,0,0,81.515,2.246,2.246,0,0,0,2.113,83.8H32.821A2.3,2.3,0,0,0,35,81.515,2.47,2.47,0,0,0,33.877,79.492ZM32.623,82.56H2.377a1.037,1.037,0,0,1-1.057-1.044,1.112,1.112,0,0,1,.462-.849L17.5,70.484,33.151,80.536a1.1,1.1,0,0,1,.594.914A1.15,1.15,0,0,1,32.623,82.56Z" transform="translate(0.125 -58.675)" fill="currentColor" stroke="currentColor" stroke-width="0.25"/>
</svg>
